<svg width="48" height="46" viewBox="0 0 48 46" fill="none" xmlns="http://www.w3.org/2000/svg">
<rect x="11" y="35.5" width="26" height="10" rx="4" fill="url(#paint0_linear_5137_112627)"/>
<path d="M43 15.5V38.5C43 39.6046 42.1046 40.5 41 40.5H37" stroke="#B1A5FF" stroke-width="1.5"/>
<g filter="url(#filter0_d_5137_112627)">
<rect x="41" y="24.5" width="4" height="10" rx="2" fill="#5438FF"/>
</g>
<circle cx="43" cy="15.5" r="4" fill="url(#paint1_linear_5137_112627)"/>
<path d="M5 4.5V38.5C5 39.6045 5.89543 40.5 7 40.5H11" stroke="#B1A5FF" stroke-width="1.5"/>
<g filter="url(#filter1_d_5137_112627)">
<rect x="3" y="17.5" width="4" height="10" rx="2" fill="#5438FF"/>
</g>
<path d="M4.19187 0.962521C4.56513 0.345826 5.43487 0.345827 5.80813 0.962522L8.85362 5.99435C9.25033 6.6498 8.794 7.5 8.04549 7.5H1.95451C1.206 7.5 0.749671 6.6498 1.14638 5.99435L4.19187 0.962521Z" fill="url(#paint2_linear_5137_112627)"/>
<defs>
<filter id="filter0_d_5137_112627" x="38" y="21.5" width="10" height="16" filterUnits="userSpaceOnUse" color-interpolation-filters="sRGB">
<feFlood flood-opacity="0" result="BackgroundImageFix"/>
<feColorMatrix in="SourceAlpha" type="matrix" values="0 0 0 0 0 0 0 0 0 0 0 0 0 0 0 0 0 0 127 0" result="hardAlpha"/>
<feOffset/>
<feGaussianBlur stdDeviation="1.5"/>
<feComposite in2="hardAlpha" operator="out"/>
<feColorMatrix type="matrix" values="0 0 0 0 0.329412 0 0 0 0 0.219608 0 0 0 0 1 0 0 0 0.45 0"/>
<feBlend mode="normal" in2="BackgroundImageFix" result="effect1_dropShadow_5137_112627"/>
<feBlend mode="normal" in="SourceGraphic" in2="effect1_dropShadow_5137_112627" result="shape"/>
</filter>
<filter id="filter1_d_5137_112627" x="0" y="14.5" width="10" height="16" filterUnits="userSpaceOnUse" color-interpolation-filters="sRGB">
<feFlood flood-opacity="0" result="BackgroundImageFix"/>
<feColorMatrix in="SourceAlpha" type="matrix" values="0 0 0 0 0 0 0 0 0 0 0 0 0 0 0 0 0 0 127 0" result="hardAlpha"/>
<feOffset/>
<feGaussianBlur stdDeviation="1.5"/>
<feComposite in2="hardAlpha" operator="out"/>
<feColorMatrix type="matrix" values="0 0 0 0 0.329412 0 0 0 0 0.219608 0 0 0 0 1 0 0 0 0.45 0"/>
<feBlend mode="normal" in2="BackgroundImageFix" result="effect1_dropShadow_5137_112627"/>
<feBlend mode="normal" in="SourceGraphic" in2="effect1_dropShadow_5137_112627" result="shape"/>
</filter>
<linearGradient id="paint0_linear_5137_112627" x1="24.5" y1="45.5" x2="24.5" y2="35.5" gradientUnits="userSpaceOnUse">
<stop stop-color="#5438FF"/>
<stop offset="1" stop-color="#B1A5FF"/>
</linearGradient>
<linearGradient id="paint1_linear_5137_112627" x1="42.9999" y1="10.5026" x2="42.9999" y2="19.4999" gradientUnits="userSpaceOnUse">
<stop stop-color="#5438FF"/>
<stop offset="1" stop-color="#B1A5FF"/>
</linearGradient>
<linearGradient id="paint2_linear_5137_112627" x1="4.99992" y1="-0.372727" x2="4.99992" y2="7.49996" gradientUnits="userSpaceOnUse">
<stop stop-color="#5438FF"/>
<stop offset="1" stop-color="#B1A5FF"/>
</linearGradient>
</defs>
</svg>
