<svg width="50" height="36" viewBox="0 0 50 36" fill="none" xmlns="http://www.w3.org/2000/svg">
<rect x="0.5" y="0.5" width="49" height="35" rx="5.5" fill="#F5F3F7"/>
<path d="M24.3527 12.528C22.6247 12.624 21.6807 12.672 21.5207 12.672C21.1367 12.672 20.7527 12.44 20.3687 11.976C19.9847 11.496 19.7927 11 19.7927 10.488C19.7927 9.704 22.0727 9.312 26.6327 9.312C28.9687 9.312 30.6887 9.552 31.7927 10.032C32.8967 10.512 33.4487 11.096 33.4487 11.784C33.4487 11.992 33.3287 12.192 33.0887 12.384C32.8487 12.56 32.5447 12.648 32.1767 12.648C31.8087 12.648 31.1367 12.624 30.1607 12.576C29.1847 12.528 28.2967 12.496 27.4967 12.48C27.5607 12.672 27.5927 12.896 27.5927 13.152C27.5927 13.408 27.4967 13.912 27.3047 14.664C27.1287 15.416 26.8727 16.464 26.5367 17.808C26.2007 19.136 25.8327 20.752 25.4327 22.656C25.0327 24.544 24.7527 25.672 24.5927 26.04C24.4487 26.392 24.3047 26.568 24.1607 26.568C23.8247 26.568 23.4007 26.264 22.8887 25.656C22.3927 25.032 22.1447 24.528 22.1447 24.144C22.1447 23.76 22.4727 22.176 23.1287 19.392C23.7847 16.592 24.1927 14.304 24.3527 12.528Z" fill="#FFE838"/>
<path d="M24.3527 12.528L24.8506 12.5729L24.9025 11.9967L24.3249 12.0288L24.3527 12.528ZM20.3687 11.976L19.9782 12.2884L19.9835 12.2948L20.3687 11.976ZM31.7927 10.032L31.5933 10.4905V10.4905L31.7927 10.032ZM33.0887 12.384L33.3843 12.7872L33.3928 12.781L33.401 12.7744L33.0887 12.384ZM30.1607 12.576L30.1361 13.0754H30.1361L30.1607 12.576ZM27.4967 12.48L27.5067 11.9801L26.7983 11.9659L27.0223 12.6381L27.4967 12.48ZM27.3047 14.664L26.8201 14.5403L26.8178 14.5501L27.3047 14.664ZM26.5367 17.808L27.0214 17.9306L27.0217 17.9293L26.5367 17.808ZM25.4327 22.656L25.9218 22.7596L25.922 22.7588L25.4327 22.656ZM24.5927 26.04L24.134 25.8406L24.1299 25.8507L24.5927 26.04ZM22.8887 25.656L22.4972 25.9671L22.5016 25.9727L22.5062 25.9781L22.8887 25.656ZM23.1287 19.392L23.6153 19.5067L23.6155 19.5061L23.1287 19.392ZM24.3249 12.0288C22.5844 12.1255 21.6624 12.172 21.5207 12.172V13.172C21.6989 13.172 22.6649 13.1225 24.3804 13.0272L24.3249 12.0288ZM21.5207 12.172C21.3535 12.172 21.0969 12.0717 20.7539 11.6572L19.9835 12.2948C20.4084 12.8083 20.9198 13.172 21.5207 13.172V12.172ZM20.7591 11.6637C20.4313 11.2539 20.2927 10.8649 20.2927 10.488H19.2927C19.2927 11.1351 19.538 11.7381 19.9782 12.2883L20.7591 11.6637ZM20.2927 10.488C20.2927 10.5791 20.2176 10.5374 20.4494 10.4179C20.6663 10.306 21.0342 10.1939 21.5874 10.0988C22.684 9.91022 24.3593 9.812 26.6327 9.812V8.812C24.346 8.812 22.6013 8.90977 21.4179 9.11323C20.8311 9.21412 20.344 9.34701 19.991 9.52913C19.6527 9.70359 19.2927 10.0049 19.2927 10.488H20.2927ZM26.6327 9.812C28.9525 9.812 30.587 10.053 31.5933 10.4905L31.992 9.57346C30.7903 9.05097 28.9848 8.812 26.6327 8.812V9.812ZM31.5933 10.4905C32.6608 10.9547 32.9487 11.4164 32.9487 11.784H33.9487C33.9487 10.7756 33.1325 10.0693 31.992 9.57346L31.5933 10.4905ZM32.9487 11.784C32.9487 11.7867 32.9491 11.8008 32.9299 11.8328C32.9085 11.8685 32.8638 11.9236 32.7763 11.9936L33.401 12.7744C33.7012 12.5343 33.9487 12.2056 33.9487 11.784H32.9487ZM32.793 11.9808C32.6573 12.0803 32.4639 12.148 32.1767 12.148V13.148C32.6255 13.148 33.04 13.0397 33.3843 12.7872L32.793 11.9808ZM32.1767 12.148C31.8226 12.148 31.1621 12.1246 30.1852 12.0766L30.1361 13.0754C31.1112 13.1234 31.7947 13.148 32.1767 13.148V12.148ZM30.1852 12.0766C29.2054 12.0284 28.3124 11.9962 27.5067 11.9801L27.4867 12.9799C28.2809 12.9958 29.1639 13.0276 30.1361 13.0754L30.1852 12.0766ZM27.0223 12.6381C27.0655 12.7677 27.0927 12.9362 27.0927 13.152H28.0927C28.0927 12.8558 28.0558 12.5763 27.971 12.3219L27.0223 12.6381ZM27.0927 13.152C27.0927 13.3345 27.015 13.7772 26.8202 14.5403L27.7891 14.7877C27.9783 14.0468 28.0927 13.4815 28.0927 13.152H27.0927ZM26.8178 14.5501C26.6427 15.2984 26.3874 16.3436 26.0516 17.6867L27.0217 17.9293C27.3579 16.5844 27.6146 15.5336 27.7915 14.7779L26.8178 14.5501ZM26.0519 17.6854C25.7137 19.022 25.3442 20.6451 24.9433 22.5532L25.922 22.7588C26.3211 20.8589 26.6876 19.25 27.0214 17.9306L26.0519 17.6854ZM24.9435 22.5524C24.744 23.4939 24.5754 24.2416 24.4374 24.7975C24.2959 25.3674 24.1948 25.701 24.1341 25.8406L25.0512 26.2394C25.1505 26.011 25.2694 25.5966 25.4079 25.0385C25.5499 24.4664 25.7213 23.7061 25.9218 22.7596L24.9435 22.5524ZM24.1299 25.8507C24.0992 25.9258 24.0709 25.9854 24.0457 26.0316C24.0201 26.0784 24.0009 26.1057 23.9897 26.1194C23.9777 26.134 23.9825 26.1239 24.0079 26.1084C24.0368 26.0907 24.0898 26.068 24.1607 26.068V27.068C24.4519 27.068 24.6516 26.8895 24.7636 26.7526C24.8811 26.609 24.9755 26.4248 25.0554 26.2293L24.1299 25.8507ZM24.1607 26.068C24.1405 26.068 24.0528 26.0561 23.882 25.9337C23.7164 25.815 23.5128 25.6209 23.2711 25.3339L22.5062 25.9781C22.7766 26.2991 23.0409 26.561 23.2993 26.7463C23.5525 26.9279 23.8448 27.068 24.1607 27.068V26.068ZM23.2801 25.3449C22.7919 24.7307 22.6447 24.3443 22.6447 24.144H21.6447C21.6447 24.7117 21.9935 25.3333 22.4972 25.9671L23.2801 25.3449ZM22.6447 24.144C22.6447 24.0947 22.6579 23.9617 22.6994 23.7132C22.7388 23.4763 22.7989 23.1624 22.8803 22.7694C23.0429 21.984 23.2877 20.8971 23.6153 19.5067L22.642 19.2773C22.3136 20.6709 22.0664 21.768 21.901 22.5666C21.8184 22.9656 21.7555 23.2937 21.713 23.5488C21.6724 23.7923 21.6447 24.0013 21.6447 24.144H22.6447ZM23.6155 19.5061C24.274 16.6953 24.6877 14.3818 24.8506 12.5729L23.8547 12.4831C23.6976 14.2262 23.2953 16.4887 22.6418 19.2779L23.6155 19.5061Z" fill="black" fill-opacity="0.3"/>
<rect x="0.5" y="0.5" width="49" height="35" rx="5.5" stroke="#E3E2E4" stroke-dasharray="2 2"/>
</svg>
