<svg width="66" height="55" viewBox="0 0 66 55" fill="none" xmlns="http://www.w3.org/2000/svg">
<g filter="url(#filter0_d_5137_112625)">
<g clip-path="url(#clip0_5137_112625)">
<g clip-path="url(#clip1_5137_112625)">
<g opacity="0.8" filter="url(#filter1_f_5137_112625)">
<ellipse cx="18.0344" cy="24.2565" rx="18.0344" ry="24.2565" transform="matrix(-0.155936 -0.987767 0.999908 0.0135939 13.7056 34.4636)" fill="#FFCFAC"/>
</g>
<g opacity="0.8" filter="url(#filter2_f_5137_112625)">
<ellipse cx="19.6507" cy="19.8311" rx="19.6507" ry="19.8311" transform="matrix(-0.409404 -0.912353 0.978013 -0.208546 8.12207 36.8379)" fill="#FF7715"/>
</g>
<g opacity="0.8" filter="url(#filter3_f_5137_112625)">
<path d="M63.5789 9.77916C72.9851 18.853 56.3243 47.3862 52.5954 44.2186C50.3206 42.2863 50.0377 31.0205 43.0574 24.3547C38.5951 20.0935 28.6749 19.6723 22.6336 18.3699C7.14186 15.0301 54.0943 0.629664 63.5789 9.77916Z" fill="#DDBC68"/>
</g>
</g>
</g>
<rect x="0.62962" y="1.09053" width="49.6656" height="33.0444" rx="3.56167" transform="matrix(0.965926 0.258818 -0.25882 0.965926 13.0395 3.55018)" stroke="#E3E2E4" stroke-width="1.78084"/>
<path d="M19.8753 18.8154C19.2887 21.0046 20.6767 23.2782 22.975 23.894C25.2732 24.5098 27.612 23.2348 28.1986 21.0456C28.7852 18.8564 27.3973 16.5828 25.099 15.967C22.8007 15.3512 20.4619 16.6262 19.8753 18.8154Z" fill="url(#paint0_linear_5137_112625)"/>
<path d="M39.5992 38.4262L39.23 39.8042C38.985 40.7183 38.8256 41.3081 38.6667 41.747C38.5143 42.1678 38.4088 42.3107 38.3459 42.3778C38.1064 42.6334 37.7867 42.8076 37.4328 42.8757C37.3398 42.8936 37.1561 42.9084 36.6944 42.8224C36.2129 42.7327 35.5929 42.5679 34.6331 42.3108L18.6523 38.0287C17.6925 37.7716 17.0731 37.6043 16.6113 37.4412C16.1685 37.2848 16.0169 37.1802 15.9453 37.1182C15.6728 36.8822 15.4831 36.5715 15.4034 36.2304C15.3825 36.1408 15.3626 35.9643 15.441 35.5237C15.5228 35.0642 15.6797 34.4736 15.9246 33.5596L17.0846 29.2305C17.1673 29.1895 17.2483 29.1504 17.3276 29.1135C17.9411 28.8274 18.5874 28.5995 19.3224 28.5611C20.4178 28.5039 21.5121 28.7843 22.4456 29.3614C23.0721 29.7487 23.53 30.2596 23.9312 30.8056C24.1946 31.164 24.4705 31.5907 24.7719 32.0733L26.8414 30.9561C27.6317 30.5293 28.3131 30.1615 28.9008 29.9036C29.5206 29.6316 30.1719 29.4182 30.9073 29.3958C32.0034 29.3624 33.0905 29.6658 34.0102 30.2616C34.6274 30.6614 35.0734 31.1809 35.462 31.7343C35.462 31.7343 38.226 36.2072 39.5992 38.4262Z" fill="url(#paint1_linear_5137_112625)"/>
</g>
<g filter="url(#filter4_d_5137_112625)">
<rect x="5.67139" y="9.23297" width="52.5347" height="35.6167" rx="4.45209" fill="white" shape-rendering="crispEdges"/>
<g clip-path="url(#clip2_5137_112625)">
<g clip-path="url(#clip3_5137_112625)">
<g opacity="0.8" filter="url(#filter5_f_5137_112625)">
<ellipse cx="18.0344" cy="24.2565" rx="18.0344" ry="24.2565" transform="matrix(-0.406276 -0.91375 0.969355 -0.245664 15.2515 39.2398)" fill="#5076FF"/>
</g>
<g opacity="0.8" filter="url(#filter6_f_5137_112625)">
<ellipse cx="19.6507" cy="19.8312" rx="19.6507" ry="19.8312" transform="matrix(-0.631588 -0.775304 0.890712 -0.454568 10.4727 42.978)" fill="#77FFCE"/>
</g>
<g opacity="0.8" filter="url(#filter7_f_5137_112625)">
<path d="M57.0367 2.48799C68.4709 8.81812 59.7628 40.6913 55.3411 38.5967C52.6437 37.319 49.4547 26.5102 40.9869 21.8782C35.5738 18.9172 25.8826 21.0778 19.71 21.3834C3.88181 22.167 45.5072 -3.89495 57.0367 2.48799Z" fill="#35B7E0"/>
</g>
</g>
</g>
<rect x="6.5618" y="10.1232" width="50.7539" height="33.8358" rx="3.56167" stroke="#E3E2E4" stroke-width="1.78084"/>
<path d="M17.1606 22.5277C17.1606 24.7941 19.0897 26.631 21.4691 26.631C23.8484 26.631 25.7776 24.7941 25.7776 22.5277C25.7776 20.2612 23.8484 18.4244 21.4691 18.4244C19.0897 18.4244 17.1606 20.2612 17.1606 22.5277Z" fill="url(#paint2_linear_5137_112625)"/>
<path d="M41.2881 36.3654L41.2881 37.7919C41.2881 38.7383 41.2867 39.3493 41.2468 39.8143C41.2086 40.2602 41.1437 40.4255 41.1002 40.5067C40.935 40.8155 40.6714 41.0666 40.3471 41.224C40.2619 41.2653 40.0883 41.3271 39.6201 41.3636C39.1318 41.4016 38.4902 41.4029 37.4966 41.4029H20.9521C19.9584 41.4029 19.3169 41.4016 18.8286 41.3636C18.3604 41.3271 18.1868 41.2653 18.1016 41.224C17.7773 41.0666 17.5137 40.8155 17.3484 40.5067C17.305 40.4255 17.2401 40.2602 17.2018 39.8143C17.1619 39.3493 17.1606 38.7383 17.1606 37.7919L17.1606 33.3102C17.2299 33.2492 17.2981 33.1905 17.3651 33.1342C17.8836 32.6992 18.4489 32.3117 19.149 32.0844C20.1922 31.7457 21.3217 31.7333 22.3729 32.0491C23.0782 32.261 23.6527 32.636 24.1816 33.0596C24.5288 33.3376 24.9057 33.6783 25.3218 34.0665L27.0315 32.4517C27.6845 31.835 28.2474 31.3033 28.7484 30.9021C29.2767 30.4789 29.8506 30.1043 30.5552 29.8923C31.6052 29.5764 32.7338 29.588 33.7764 29.9255C34.476 30.1519 35.0412 30.5383 35.5598 30.9723C35.5598 30.9723 39.3873 34.5774 41.2881 36.3654Z" fill="url(#paint3_linear_5137_112625)"/>
</g>
<defs>
<filter id="filter0_d_5137_112625" x="-0.561671" y="-0.56161" width="67.0862" height="55.1233" filterUnits="userSpaceOnUse" color-interpolation-filters="sRGB">
<feFlood flood-opacity="0" result="BackgroundImageFix"/>
<feColorMatrix in="SourceAlpha" type="matrix" values="0 0 0 0 0 0 0 0 0 0 0 0 0 0 0 0 0 0 127 0" result="hardAlpha"/>
<feOffset/>
<feGaussianBlur stdDeviation="1.78084"/>
<feComposite in2="hardAlpha" operator="out"/>
<feColorMatrix type="matrix" values="0 0 0 0 0.258824 0 0 0 0 0.254902 0 0 0 0 0.286275 0 0 0 0.14 0"/>
<feBlend mode="normal" in2="BackgroundImageFix" result="effect1_dropShadow_5137_112625"/>
<feBlend mode="normal" in="SourceGraphic" in2="effect1_dropShadow_5137_112625" result="shape"/>
</filter>
<filter id="filter1_f_5137_112625" x="1.23073" y="-10.3352" width="67.834" height="54.6294" filterUnits="userSpaceOnUse" color-interpolation-filters="sRGB">
<feFlood flood-opacity="0" result="BackgroundImageFix"/>
<feBlend mode="normal" in="SourceGraphic" in2="BackgroundImageFix" result="shape"/>
<feGaussianBlur stdDeviation="4.74889" result="effect1_foregroundBlur_5137_112625"/>
</filter>
<filter id="filter2_f_5137_112625" x="-11.0286" y="-13.1273" width="61.0014" height="55.8022" filterUnits="userSpaceOnUse" color-interpolation-filters="sRGB">
<feFlood flood-opacity="0" result="BackgroundImageFix"/>
<feBlend mode="normal" in="SourceGraphic" in2="BackgroundImageFix" result="shape"/>
<feGaussianBlur stdDeviation="4.7489" result="effect1_foregroundBlur_5137_112625"/>
</filter>
<filter id="filter3_f_5137_112625" x="10.0266" y="-2.71657" width="65.8896" height="56.6772" filterUnits="userSpaceOnUse" color-interpolation-filters="sRGB">
<feFlood flood-opacity="0" result="BackgroundImageFix"/>
<feBlend mode="normal" in="SourceGraphic" in2="BackgroundImageFix" result="shape"/>
<feGaussianBlur stdDeviation="4.7489" result="effect1_foregroundBlur_5137_112625"/>
</filter>
<filter id="filter4_d_5137_112625" x="2.10972" y="5.67109" width="59.658" height="42.7402" filterUnits="userSpaceOnUse" color-interpolation-filters="sRGB">
<feFlood flood-opacity="0" result="BackgroundImageFix"/>
<feColorMatrix in="SourceAlpha" type="matrix" values="0 0 0 0 0 0 0 0 0 0 0 0 0 0 0 0 0 0 127 0" result="hardAlpha"/>
<feOffset/>
<feGaussianBlur stdDeviation="1.78084"/>
<feComposite in2="hardAlpha" operator="out"/>
<feColorMatrix type="matrix" values="0 0 0 0 0.258824 0 0 0 0 0.254902 0 0 0 0 0.286275 0 0 0 0.14 0"/>
<feBlend mode="normal" in2="BackgroundImageFix" result="effect1_dropShadow_5137_112625"/>
<feBlend mode="normal" in="SourceGraphic" in2="effect1_dropShadow_5137_112625" result="shape"/>
</filter>
<filter id="filter5_f_5137_112625" x="-2.69506" y="-10.224" width="68.2656" height="54.0517" filterUnits="userSpaceOnUse" color-interpolation-filters="sRGB">
<feFlood flood-opacity="0" result="BackgroundImageFix"/>
<feBlend mode="normal" in="SourceGraphic" in2="BackgroundImageFix" result="shape"/>
<feGaussianBlur stdDeviation="4.74889" result="effect1_foregroundBlur_5137_112625"/>
</filter>
<filter id="filter6_f_5137_112625" x="-15.3625" y="-8.47495" width="62.1758" height="54.4061" filterUnits="userSpaceOnUse" color-interpolation-filters="sRGB">
<feFlood flood-opacity="0" result="BackgroundImageFix"/>
<feBlend mode="normal" in="SourceGraphic" in2="BackgroundImageFix" result="shape"/>
<feGaussianBlur stdDeviation="4.7489" result="effect1_foregroundBlur_5137_112625"/>
</filter>
<filter id="filter7_f_5137_112625" x="6.66676" y="-8.01737" width="65.5259" height="56.2106" filterUnits="userSpaceOnUse" color-interpolation-filters="sRGB">
<feFlood flood-opacity="0" result="BackgroundImageFix"/>
<feBlend mode="normal" in="SourceGraphic" in2="BackgroundImageFix" result="shape"/>
<feGaussianBlur stdDeviation="4.7489" result="effect1_foregroundBlur_5137_112625"/>
</filter>
<linearGradient id="paint0_linear_5137_112625" x1="32.59" y1="17.9742" x2="26.6427" y2="40.1698" gradientUnits="userSpaceOnUse">
<stop offset="0.578125" stop-color="white"/>
<stop offset="1" stop-color="white" stop-opacity="0"/>
</linearGradient>
<linearGradient id="paint1_linear_5137_112625" x1="32.59" y1="17.9742" x2="26.6427" y2="40.1698" gradientUnits="userSpaceOnUse">
<stop offset="0.578125" stop-color="white"/>
<stop offset="1" stop-color="white" stop-opacity="0"/>
</linearGradient>
<linearGradient id="paint2_linear_5137_112625" x1="29.2243" y1="18.4244" x2="29.2243" y2="41.4029" gradientUnits="userSpaceOnUse">
<stop offset="0.578125" stop-color="white"/>
<stop offset="1" stop-color="white" stop-opacity="0"/>
</linearGradient>
<linearGradient id="paint3_linear_5137_112625" x1="29.2243" y1="18.4244" x2="29.2243" y2="41.4029" gradientUnits="userSpaceOnUse">
<stop offset="0.578125" stop-color="white"/>
<stop offset="1" stop-color="white" stop-opacity="0"/>
</linearGradient>
<clipPath id="clip0_5137_112625">
<rect width="51.4464" height="34.8252" rx="4.45209" transform="matrix(0.965926 0.258818 -0.25882 0.965926 12.7358 3.67598)" fill="white"/>
</clipPath>
<clipPath id="clip1_5137_112625">
<rect width="51.4464" height="34.8252" fill="white" transform="matrix(0.965926 0.258818 -0.25882 0.965926 12.7358 3.67598)"/>
</clipPath>
<clipPath id="clip2_5137_112625">
<rect x="5.67139" y="9.23276" width="52.5347" height="35.6167" rx="4.45209" fill="white"/>
</clipPath>
<clipPath id="clip3_5137_112625">
<rect width="51.4464" height="34.8252" fill="white" transform="translate(6.34619 9.75191)"/>
</clipPath>
</defs>
</svg>
