<svg width="24" height="24" viewBox="0 0 24 24" fill="none" xmlns="http://www.w3.org/2000/svg">
<path d="M14.8114 20.999C13.2447 20.9679 11.7002 20.6209 10.2699 19.9787L4.67482 17.3458C4.12742 17.0853 3.70531 16.6178 3.501 16.0458C3.29668 15.4737 3.32684 14.8437 3.58486 14.2938C3.84271 13.7454 4.30714 13.3222 4.87604 13.1172C5.44494 12.9122 6.07173 12.9422 6.61858 13.2006L7.66312 13.6926C7.17264 12.0254 6.19168 9.26496 4.72024 7.65243L3.81194 6.9145C3.37099 6.55513 3.08591 6.03846 3.01648 5.47286C2.94705 4.90727 3.09867 4.33669 3.43953 3.88077C3.78344 3.42341 4.29072 3.11757 4.85476 3.02753C5.4188 2.93748 5.99569 3.07025 6.46417 3.39792C7.56208 4.18419 8.52532 5.14417 9.31623 6.24033C9.58326 5.83988 9.97184 5.53639 10.4244 5.37486C10.7041 5.27066 11.002 5.22422 11.3001 5.23831C11.5982 5.2524 11.8904 5.32672 12.1592 5.45685C12.4015 5.57016 12.6227 5.72422 12.8132 5.91236C13.058 5.63326 13.371 5.42289 13.7215 5.30197C13.9828 5.20656 14.2604 5.16466 14.5381 5.17874C14.8158 5.19282 15.0879 5.2626 15.3383 5.38396C15.6253 5.51414 15.8775 5.71086 16.074 5.95792C16.1756 5.89185 16.2856 5.83976 16.401 5.80304C16.7997 5.65961 17.2388 5.68073 17.622 5.86179C18.0052 6.04285 18.301 6.36905 18.4446 6.76873L20.6155 12.818C21.1282 14.2647 21.1282 15.8444 20.6155 17.2911C20.3444 18.0579 19.9061 18.7544 19.3326 19.3296C18.759 19.9049 18.0647 20.3445 17.3002 20.6164C16.4979 20.8833 15.6566 21.0127 14.8114 20.999ZM5.75747 14.4032C5.62583 14.3751 5.4278 14.3671 5.32879 14.4032C5.21385 14.4428 5.108 14.5051 5.01751 14.5865C4.92702 14.6678 4.85373 14.7666 4.80198 14.8769C4.74874 14.9866 4.71803 15.106 4.71166 15.2278C4.7053 15.3497 4.72341 15.4716 4.76492 15.5863C4.80643 15.7011 4.8705 15.8062 4.95332 15.8957C5.03614 15.9851 5.13602 16.0569 5.24704 16.1068L10.8058 18.7943C10.8058 18.7943 14.0939 20.3249 16.8006 19.3501C17.3787 19.1551 17.9049 18.8307 18.3392 18.4013C18.7736 17.9719 19.1048 17.449 19.3075 16.8721C19.7157 15.7262 19.7157 14.474 19.3075 13.3282L17.1276 7.27891C17.1185 7.2489 17.1033 7.22112 17.083 7.19728C17.0626 7.17344 17.0376 7.15407 17.0095 7.14038C16.9813 7.1267 16.9507 7.119 16.9194 7.11775C16.8882 7.11651 16.857 7.12174 16.8279 7.13314C16.7706 7.1556 16.7243 7.19958 16.6989 7.25572C16.6734 7.31186 16.6708 7.37574 16.6916 7.43378L17.0004 8.34481C17.0366 8.43122 17.0546 8.52416 17.0534 8.61785C17.0522 8.71153 17.0318 8.80397 16.9934 8.88941C16.9551 8.97485 16.8997 9.05147 16.8305 9.11451C16.7614 9.17755 16.6801 9.22565 16.5917 9.25584C16.5056 9.29207 16.4129 9.31014 16.3195 9.30893C16.2261 9.30772 16.1339 9.28726 16.0487 9.24881C15.9636 9.21036 15.8872 9.15474 15.8243 9.08543C15.7615 9.01611 15.7135 8.93458 15.6834 8.84588L15.0839 7.16959C15.0101 6.98388 14.8712 6.8316 14.6934 6.7414C14.6028 6.70307 14.5055 6.68331 14.4072 6.68331C14.309 6.68331 14.2117 6.70307 14.1211 6.7414C13.9396 6.80212 13.7882 6.93063 13.6986 7.10026C13.609 7.26989 13.5879 7.46763 13.6397 7.65243L13.8941 8.60902C13.9389 8.7793 13.9156 8.96042 13.829 9.11365C13.7424 9.26688 13.5995 9.38005 13.4308 9.42894C13.2645 9.4814 13.0845 9.46702 12.9285 9.38884C12.7726 9.31065 12.6531 9.17476 12.5952 9.00986L11.9957 7.35179C11.9119 7.12856 11.7441 6.94721 11.5284 6.84671C11.3127 6.7462 11.0663 6.73457 10.8422 6.81429C10.6196 6.89838 10.4388 7.06666 10.3386 7.283C10.2384 7.49933 10.2268 7.74646 10.3063 7.97129L10.7423 9.19208C10.7784 9.27848 10.7964 9.37141 10.7952 9.4651C10.794 9.55878 10.7736 9.65122 10.7352 9.73666C10.6969 9.8221 10.6415 9.89872 10.5724 9.96176C10.5033 10.0248 10.422 10.0729 10.3335 10.1031C10.2474 10.1393 10.1547 10.1574 10.0613 10.1562C9.96791 10.155 9.87575 10.1345 9.79056 10.0961C9.70538 10.0576 9.62899 10.002 9.56614 9.93269C9.50329 9.86338 9.45533 9.78183 9.42523 9.69313C8.68278 7.68202 7.3454 5.94647 5.5922 4.71891C5.41716 4.59322 5.19975 4.54185 4.98718 4.57597C4.7746 4.61008 4.58403 4.72692 4.45683 4.90112C4.32552 5.07405 4.33703 5.23645 4.36245 5.45231C4.38787 5.66818 4.49591 5.8657 4.66377 6.00319L5.57207 6.76845L5.63565 6.83222C8.11531 9.50154 9.26884 14.7126 9.31426 14.9313C9.34154 15.0568 9.33301 15.1875 9.28963 15.3083C9.24625 15.4292 9.1698 15.5353 9.06902 15.6146C8.96956 15.6916 8.85101 15.74 8.72616 15.7544C8.60131 15.7689 8.47489 15.7489 8.36055 15.6966L6.77594 14.8769C6.38102 14.6614 6.29788 14.5865 5.75747 14.4032Z" fill="#77757D"/>
</svg>
