<svg width="18" height="20" viewBox="0 0 18 20" fill="none" xmlns="http://www.w3.org/2000/svg">
<path fill-rule="evenodd" clip-rule="evenodd" d="M6.33822 1.88232L14.071 6.69778C15.057 7.31183 15.8404 7.79965 16.4017 8.22164C16.9493 8.63335 17.4318 9.08425 17.62 9.66951C17.8867 10.4988 17.7381 11.4034 17.2188 12.1027C16.8519 12.5967 16.2493 12.8668 15.599 13.0782C14.9323 13.295 14.0343 13.5017 12.9044 13.7619L10.4307 14.3315C10.0188 14.4263 9.90993 14.4546 9.8157 14.4966C9.71865 14.5398 9.62802 14.5952 9.546 14.6612C9.46684 14.7248 9.3935 14.8071 9.12352 15.1285L7.93051 16.5487C7.16194 17.4637 6.55201 18.1898 6.04189 18.6983C5.54485 19.1937 5.01767 19.6165 4.39804 19.7155C3.52711 19.8546 2.63961 19.5686 2.01457 18.9464C1.56962 18.5035 1.39023 17.852 1.27803 17.16C1.16287 16.4498 1.09454 15.5048 1.00846 14.3143L0.365239 5.4194C0.295671 4.4575 0.239643 3.68282 0.251622 3.08075C0.263555 2.48099 0.341231 1.90704 0.657526 1.44032C1.1136 0.767343 1.84833 0.335945 2.65829 0.258656C3.21736 0.205308 3.76101 0.406003 4.30188 0.678631C4.84482 0.952301 5.5102 1.36667 6.33822 1.88232ZM3.62672 2.01809C3.14242 1.77398 2.91937 1.74056 2.80078 1.75187C2.43094 1.78716 2.10152 1.98335 1.89924 2.28182C1.83739 2.3731 1.76197 2.57571 1.75133 3.11059C1.74089 3.63501 1.79111 4.34017 1.86417 5.35039L2.50169 14.1665C2.59128 15.4054 2.6555 16.2835 2.7587 16.92C2.86614 17.5826 2.99323 17.8041 3.07276 17.8833C3.3574 18.1666 3.76345 18.2978 4.16139 18.2342C4.27331 18.2164 4.50697 18.1103 4.98296 17.6359C5.44025 17.1801 6.00769 16.5057 6.8074 15.5536L7.97496 14.1637C7.98756 14.1487 8.00001 14.1338 8.01231 14.1192C8.22745 13.8628 8.39814 13.6594 8.60594 13.4923C8.78909 13.345 8.99063 13.222 9.20545 13.1264C9.44886 13.018 9.70834 12.9583 10.0373 12.8828C10.056 12.8785 10.075 12.8741 10.0941 12.8697L12.5295 12.3089C13.7063 12.038 14.5391 11.8455 15.1352 11.6517C15.7552 11.4501 15.9496 11.2958 16.0145 11.2084C16.2445 10.8987 16.3109 10.4982 16.1921 10.1288C16.1582 10.0234 16.0224 9.81314 15.5003 9.4206C14.9981 9.04307 14.2715 8.58973 13.2448 7.95035L5.57798 3.17596C4.7097 2.63525 4.10182 2.25757 3.62672 2.01809Z" fill="#77757D"/>
</svg>
