<svg width="52" height="46" viewBox="0 0 52 46" fill="none" xmlns="http://www.w3.org/2000/svg">
<g clip-path="url(#clip0_5137_112628)">
<path fill-rule="evenodd" clip-rule="evenodd" d="M50.036 17.9203C50.1847 16.9471 50.1535 15.9821 49.9258 15.0399C48.1854 7.83816 35.621 4.69539 21.8624 8.02036C10.4114 10.7877 1.74218 17.1629 0.159666 23.3755L2.54954 23.1141C3.17984 21.4389 4.49749 19.6102 6.6194 17.7516C10.2397 14.5806 15.7739 11.7551 22.3792 10.1588C28.9845 8.56253 35.1982 8.54902 39.8671 9.71686C44.6505 10.9134 47.206 13.1509 47.7874 15.5567C47.98 16.3538 47.9714 17.2334 47.7389 18.1715L50.036 17.9203Z" fill="#FFE7AA"/>
<path fill-rule="evenodd" clip-rule="evenodd" d="M50.8449 17.8318C51.1847 16.5506 51.2242 15.2757 50.9256 14.0399C49.1852 6.83816 36.6207 3.69539 22.8621 7.02036C10.8508 9.92307 1.90015 16.7955 0.978514 23.2859L3.26737 23.0356C3.71559 21.1208 5.10106 18.9572 7.61915 16.7516C11.2395 13.5806 16.7736 10.7551 23.3789 9.1588C29.9842 7.56253 36.1979 7.54902 40.8668 8.71686C45.6503 9.91335 48.2057 12.1509 48.7871 14.5567C49.0417 15.6103 48.9448 16.808 48.4439 18.0944L50.8449 17.8318Z" fill="#FC8E3B"/>
<path fill-rule="evenodd" clip-rule="evenodd" d="M47.739 18.1715C47.2697 20.0649 45.8883 22.1965 43.408 24.3689C39.7877 27.54 34.2536 30.3655 27.6482 31.9618C21.0429 33.5581 14.8292 33.5716 10.1603 32.4037C5.37691 31.2072 2.82145 28.9697 2.24004 26.5639C1.99125 25.5344 2.07812 24.3672 2.5496 23.1141L0.159725 23.3755C-0.159181 24.6275 -0.190298 25.8728 0.101603 27.0807C1.84201 34.2824 14.4064 37.4252 28.165 34.1002C40.1236 31.2103 49.0483 24.3854 50.036 17.9203L47.739 18.1715Z" fill="#FFE7AA"/>
<path d="M8.9502 37C11.7116 37 13.9502 34.9853 13.9502 32.5C13.9502 30.0147 11.7116 28 8.9502 28C6.18877 28 3.9502 30.0147 3.9502 32.5C3.9502 34.9853 6.18877 37 8.9502 37ZM8.9502 37C10.6169 36.8333 13.4502 38.5 13.9502 41C14.6562 44.5301 11.9502 45.1667 10.9502 45" stroke="#FFE7AA" stroke-width="2.2" stroke-linecap="round"/>
<path d="M8.9502 36C11.7116 36 13.9502 33.9853 13.9502 31.5C13.9502 29.0147 11.7116 27 8.9502 27C6.18877 27 3.9502 29.0147 3.9502 31.5C3.9502 33.9853 6.18877 36 8.9502 36ZM8.9502 36C10.6169 35.8333 13.4502 37.5 13.9502 40C14.6562 43.5301 11.9502 44.1667 10.9502 44" stroke="#FC8E3B" stroke-width="2.2" stroke-linecap="round"/>
<path fill-rule="evenodd" clip-rule="evenodd" d="M48.4442 18.0944C47.8013 19.7456 46.4929 21.5428 44.408 23.369C40.7877 26.54 35.2536 29.3655 28.6482 30.9618C22.0429 32.5581 15.8292 32.5716 11.1603 31.4037C6.37691 30.2072 3.82145 27.9697 3.24004 25.5639C3.05335 24.7914 3.05566 23.9413 3.26767 23.0356L0.97882 23.2859C0.844752 24.2301 0.880582 25.1661 1.1016 26.0807C2.84201 33.2824 15.4064 36.4252 29.165 33.1002C40.5628 30.3458 49.2045 24.0169 50.8452 17.8318L48.4442 18.0944Z" fill="#FC8E3B"/>
<path d="M31.7149 39.3668L30.1655 20.6068C30.09 19.6922 31.1832 19.1674 31.8496 19.7983L45.8242 33.0291C46.5166 33.6847 45.9858 34.8453 45.037 34.7503L38.4415 34.09C38.0923 34.055 37.7504 34.2056 37.5405 34.4868L33.5128 39.8826C32.9619 40.6207 31.7907 40.2846 31.7149 39.3668Z" fill="#FFE7AA" stroke="#FC8E3B" stroke-width="2.2"/>
</g>
<defs>
<clipPath id="clip0_5137_112628">
<rect width="52" height="46" fill="white"/>
</clipPath>
</defs>
</svg>
