<svg width="24" height="24" viewBox="0 0 24 24" fill="none" xmlns="http://www.w3.org/2000/svg">
<path fill-rule="evenodd" clip-rule="evenodd" d="M3.25 6C3.25 4.48122 4.48122 3.25 6 3.25H14C14.4142 3.25 14.75 3.58579 14.75 4C14.75 4.41421 14.4142 4.75 14 4.75H6C5.30964 4.75 4.75 5.30964 4.75 6V20C4.75 20.4142 4.41421 20.75 4 20.75C3.58579 20.75 3.25 20.4142 3.25 20V6Z" fill="#77757D"/>
<path fill-rule="evenodd" clip-rule="evenodd" d="M20.75 18C20.75 19.5188 19.5188 20.75 18 20.75H10C9.58579 20.75 9.25 20.4142 9.25 20C9.25 19.5858 9.58579 19.25 10 19.25L18 19.25C18.6904 19.25 19.25 18.6904 19.25 18L19.25 4C19.25 3.58579 19.5858 3.25 20 3.25C20.4142 3.25 20.75 3.58579 20.75 4L20.75 18Z" fill="#77757D"/>
<path fill-rule="evenodd" clip-rule="evenodd" d="M8.25 9C8.25 8.0335 9.0335 7.25 10 7.25H14C14.9665 7.25 15.75 8.0335 15.75 9V11C15.75 11.9665 14.9665 12.75 14 12.75H10C9.0335 12.75 8.25 11.9665 8.25 11V9ZM10 8.75C9.86193 8.75 9.75 8.86193 9.75 9V11C9.75 11.1381 9.86193 11.25 10 11.25H14C14.1381 11.25 14.25 11.1381 14.25 11V9C14.25 8.86193 14.1381 8.75 14 8.75H10Z" fill="#77757D"/>
<path fill-rule="evenodd" clip-rule="evenodd" d="M8.25 16C8.25 15.5858 8.58579 15.25 9 15.25H15C15.4142 15.25 15.75 15.5858 15.75 16C15.75 16.4142 15.4142 16.75 15 16.75H9C8.58579 16.75 8.25 16.4142 8.25 16Z" fill="#77757D"/>
</svg>
