<svg width="22" height="103" viewBox="0 0 22 103" fill="none" xmlns="http://www.w3.org/2000/svg">
<rect y="50" width="22" height="53" fill="url(#paint0_linear_5690_125889)"/>
<path d="M0 43.3541V48H22V43.3541C22 41.412 21.7643 39.477 21.2979 37.5916L12.2401 0.970747C12.0991 0.400545 11.5874 0 11 0C10.4126 0 9.90093 0.400544 9.7599 0.970746L0.702074 37.5916C0.235749 39.477 0 41.412 0 43.3541Z" fill="url(#paint1_linear_5690_125889)"/>
<mask id="mask0_5690_125889" style="mask-type:alpha" maskUnits="userSpaceOnUse" x="0" y="0" width="22" height="48">
<path d="M0 42.3795V48H22V42.3795C22 41.0847 21.8428 39.7947 21.532 38.5378L12.2401 0.970747C12.0991 0.400545 11.5874 0 11 0C10.4126 0 9.90093 0.400544 9.7599 0.970746L0.468049 38.5378C0.157166 39.7947 0 41.0847 0 42.3795Z" fill="url(#paint2_linear_5690_125889)"/>
</mask>
<g mask="url(#mask0_5690_125889)">
<rect x="6" y="-1" width="11" height="11" fill="black"/>
</g>
<rect y="48" width="22" height="2" fill="black"/>
<rect x="0.5" y="48.5" width="21" height="1" stroke="black" stroke-opacity="0.1"/>
<defs>
<linearGradient id="paint0_linear_5690_125889" x1="4.66e-07" y1="77.7045" x2="22" y2="77.7045" gradientUnits="userSpaceOnUse">
<stop stop-color="#D5F0F8"/>
<stop offset="0.0637281" stop-color="#EBEBEB"/>
<stop offset="0.178482" stop-color="#DADADA"/>
<stop offset="0.48833" stop-color="#F6F6F6"/>
<stop offset="0.757139" stop-color="#EFEFEF"/>
<stop offset="1" stop-color="#DDDDDD"/>
</linearGradient>
<linearGradient id="paint1_linear_5690_125889" x1="4.66e-07" y1="25.0909" x2="22" y2="25.0909" gradientUnits="userSpaceOnUse">
<stop stop-color="#D5F0F8"/>
<stop offset="0.0637281" stop-color="#EBEBEB"/>
<stop offset="0.178482" stop-color="#DADADA"/>
<stop offset="0.48833" stop-color="#F6F6F6"/>
<stop offset="0.757139" stop-color="#EFEFEF"/>
<stop offset="1" stop-color="#DDDDDD"/>
</linearGradient>
<linearGradient id="paint2_linear_5690_125889" x1="4.66e-07" y1="25.0909" x2="22" y2="25.0909" gradientUnits="userSpaceOnUse">
<stop stop-color="#DBDBDB"/>
<stop offset="0.0637281" stop-color="#EBEBEB"/>
<stop offset="0.178482" stop-color="#DADADA"/>
<stop offset="0.48833" stop-color="#F6F6F6"/>
<stop offset="0.757139" stop-color="#EFEFEF"/>
<stop offset="1" stop-color="#DDDDDD"/>
</linearGradient>
</defs>
</svg>
