<svg width="24" height="24" viewBox="0 0 24 24" fill="none" xmlns="http://www.w3.org/2000/svg">
<path fill-rule="evenodd" clip-rule="evenodd" d="M10.3382 3.88231L18.071 8.69777C19.057 9.31182 19.8404 9.79964 20.4017 10.2216C20.9493 10.6333 21.4318 11.0842 21.62 11.6695C21.8867 12.4988 21.7381 13.4034 21.2188 14.1027C20.8519 14.5967 20.2493 14.8668 19.599 15.0782C18.9323 15.2949 18.0343 15.5017 16.9044 15.7619L14.4307 16.3314C14.0188 16.4263 13.9099 16.4546 13.8157 16.4966C13.7186 16.5398 13.628 16.5952 13.546 16.6612C13.4668 16.7248 13.3935 16.807 13.1235 17.1285L11.9305 18.5487C11.1619 19.4637 10.552 20.1898 10.0419 20.6983C9.54485 21.1937 9.01767 21.6165 8.39804 21.7155C7.52711 21.8546 6.63961 21.5686 6.01457 20.9464C5.56962 20.5035 5.39023 19.852 5.27803 19.16C5.16287 18.4498 5.09454 17.5048 5.00846 16.3143L4.36524 7.41939C4.29567 6.4575 4.23964 5.68281 4.25162 5.08075C4.26356 4.48099 4.34123 3.90703 4.65753 3.44031C5.1136 2.76733 5.84833 2.33594 6.65829 2.25865C7.21736 2.2053 7.76101 2.406 8.30188 2.67862C8.84482 2.95229 9.5102 3.36666 10.3382 3.88231ZM7.62672 4.01808C7.14242 3.77397 6.91937 3.74055 6.80078 3.75187C6.43094 3.78716 6.10152 3.98334 5.89924 4.28182C5.83739 4.37309 5.76197 4.57571 5.75133 5.11059C5.74089 5.635 5.79111 6.34017 5.86417 7.35039L6.50169 16.1665C6.59128 17.4054 6.6555 18.2835 6.7587 18.92C6.86614 19.5826 6.99323 19.8041 7.07276 19.8833C7.3574 20.1666 7.76345 20.2978 8.16139 20.2342C8.27331 20.2164 8.50697 20.1103 8.98296 19.6359C9.44025 19.1801 10.0077 18.5057 10.8074 17.5536L11.975 16.1637C11.9876 16.1487 12 16.1338 12.0123 16.1192C12.2275 15.8628 12.3981 15.6594 12.6059 15.4923C12.7891 15.345 12.9906 15.222 13.2055 15.1264C13.4489 15.018 13.7083 14.9583 14.0373 14.8827C14.056 14.8785 14.075 14.8741 14.0941 14.8697L16.5295 14.3089C17.7063 14.038 18.5391 13.8455 19.1352 13.6517C19.7552 13.4501 19.9496 13.2958 20.0145 13.2084C20.2445 12.8987 20.3109 12.4982 20.1921 12.1288C20.1582 12.0234 20.0224 11.8131 19.5003 11.4206C18.9981 11.0431 18.2715 10.5897 17.2448 9.95034L9.57798 5.17595C8.7097 4.63524 8.10182 4.25756 7.62672 4.01808Z" fill="#77757D"/>
</svg>
