<svg width="51" height="37" viewBox="0 0 51 37" fill="none" xmlns="http://www.w3.org/2000/svg">
<rect x="1.00002" y="1" width="49" height="35" rx="5.5" fill="#F5F3F7"/>
<path d="M24.8527 13.028C23.1247 13.124 22.1807 13.172 22.0207 13.172C21.6367 13.172 21.2527 12.94 20.8687 12.476C20.4847 11.996 20.2927 11.5 20.2927 10.988C20.2927 10.204 22.5727 9.812 27.1327 9.812C29.4687 9.812 31.1887 10.052 32.2927 10.532C33.3967 11.012 33.9487 11.596 33.9487 12.284C33.9487 12.492 33.8287 12.692 33.5887 12.884C33.3487 13.06 33.0447 13.148 32.6767 13.148C32.3087 13.148 31.6367 13.124 30.6607 13.076C29.6847 13.028 28.7967 12.996 27.9967 12.98C28.0607 13.172 28.0927 13.396 28.0927 13.652C28.0927 13.908 27.9967 14.412 27.8047 15.164C27.6287 15.916 27.3727 16.964 27.0367 18.308C26.7007 19.636 26.3327 21.252 25.9327 23.156C25.5327 25.044 25.2527 26.172 25.0927 26.54C24.9487 26.892 24.8047 27.068 24.6607 27.068C24.3247 27.068 23.9007 26.764 23.3887 26.156C22.8927 25.532 22.6447 25.028 22.6447 24.644C22.6447 24.26 22.9727 22.676 23.6287 19.892C24.2847 17.092 24.6927 14.804 24.8527 13.028Z" fill="#FFE838"/>
<path d="M24.8527 13.028L25.3507 13.0729L25.4026 12.4967L24.8249 12.5288L24.8527 13.028ZM20.8687 12.476L20.4782 12.7884L20.4835 12.7948L20.8687 12.476ZM32.2927 10.532L32.0933 10.9905V10.9905L32.2927 10.532ZM33.5887 12.884L33.8844 13.2872L33.8928 13.281L33.901 13.2744L33.5887 12.884ZM30.6607 13.076L30.6361 13.5754H30.6361L30.6607 13.076ZM27.9967 12.98L28.0067 12.4801L27.2983 12.4659L27.5223 13.1381L27.9967 12.98ZM27.8047 15.164L27.3201 15.0403L27.3178 15.0501L27.8047 15.164ZM27.0367 18.308L27.5214 18.4306L27.5217 18.4293L27.0367 18.308ZM25.9327 23.156L26.4218 23.2596L26.422 23.2588L25.9327 23.156ZM25.0927 26.54L24.634 26.3406L24.6299 26.3507L25.0927 26.54ZM23.3887 26.156L22.9973 26.4671L23.0017 26.4727L23.0062 26.4781L23.3887 26.156ZM23.6287 19.892L24.1153 20.0067L24.1155 20.0061L23.6287 19.892ZM24.8249 12.5288C23.0844 12.6255 22.1624 12.672 22.0207 12.672V13.672C22.1989 13.672 23.1649 13.6225 24.8804 13.5272L24.8249 12.5288ZM22.0207 12.672C21.8535 12.672 21.5969 12.5717 21.2539 12.1572L20.4835 12.7948C20.9084 13.3083 21.4198 13.672 22.0207 13.672V12.672ZM21.2591 12.1637C20.9313 11.7539 20.7927 11.3649 20.7927 10.988H19.7927C19.7927 11.6351 20.0381 12.2381 20.4782 12.7883L21.2591 12.1637ZM20.7927 10.988C20.7927 11.0791 20.7176 11.0374 20.9494 10.9179C21.1663 10.806 21.5342 10.6939 22.0874 10.5988C23.184 10.4102 24.8594 10.312 27.1327 10.312V9.312C24.846 9.312 23.1013 9.40977 21.9179 9.61323C21.3312 9.71412 20.844 9.84701 20.491 10.0291C20.1527 10.2036 19.7927 10.5049 19.7927 10.988H20.7927ZM27.1327 10.312C29.4525 10.312 31.087 10.553 32.0933 10.9905L32.492 10.0735C31.2903 9.55097 29.4848 9.312 27.1327 9.312V10.312ZM32.0933 10.9905C33.1608 11.4547 33.4487 11.9164 33.4487 12.284H34.4487C34.4487 11.2756 33.6325 10.5693 32.492 10.0735L32.0933 10.9905ZM33.4487 12.284C33.4487 12.2867 33.4491 12.3008 33.4299 12.3328C33.4085 12.3685 33.3638 12.4236 33.2763 12.4936L33.901 13.2744C34.2012 13.0343 34.4487 12.7056 34.4487 12.284H33.4487ZM33.293 12.4808C33.1573 12.5803 32.9639 12.648 32.6767 12.648V13.648C33.1255 13.648 33.5401 13.5397 33.8844 13.2872L33.293 12.4808ZM32.6767 12.648C32.3226 12.648 31.6621 12.6246 30.6852 12.5766L30.6361 13.5754C31.6112 13.6234 32.2947 13.648 32.6767 13.648V12.648ZM30.6852 12.5766C29.7054 12.5284 28.8124 12.4962 28.0067 12.4801L27.9867 13.4799C28.7809 13.4958 29.6639 13.5276 30.6361 13.5754L30.6852 12.5766ZM27.5223 13.1381C27.5655 13.2677 27.5927 13.4362 27.5927 13.652H28.5927C28.5927 13.3558 28.5558 13.0763 28.471 12.8219L27.5223 13.1381ZM27.5927 13.652C27.5927 13.8345 27.515 14.2772 27.3202 15.0403L28.2891 15.2877C28.4783 14.5468 28.5927 13.9815 28.5927 13.652H27.5927ZM27.3178 15.0501C27.1427 15.7984 26.8874 16.8436 26.5516 18.1867L27.5217 18.4293C27.858 17.0844 28.1147 16.0336 28.2915 15.2779L27.3178 15.0501ZM26.5519 18.1854C26.2138 19.522 25.8442 21.1451 25.4434 23.0532L26.422 23.2588C26.8211 21.3589 27.1876 19.75 27.5214 18.4306L26.5519 18.1854ZM25.4435 23.0524C25.2441 23.9939 25.0754 24.7416 24.9374 25.2975C24.796 25.8674 24.6948 26.201 24.6341 26.3406L25.5512 26.7394C25.6505 26.511 25.7694 26.0966 25.9079 25.5385C26.0499 24.9664 26.2213 24.2061 26.4218 23.2596L25.4435 23.0524ZM24.6299 26.3507C24.5992 26.4258 24.5709 26.4854 24.5457 26.5316C24.5202 26.5784 24.5009 26.6057 24.4897 26.6194C24.4777 26.634 24.4825 26.6239 24.5079 26.6084C24.5368 26.5907 24.5899 26.568 24.6607 26.568V27.568C24.952 27.568 25.1517 27.3895 25.2637 27.2526C25.3812 27.109 25.4755 26.9248 25.5554 26.7293L24.6299 26.3507ZM24.6607 26.568C24.6406 26.568 24.5529 26.5561 24.382 26.4337C24.2165 26.315 24.0128 26.1209 23.7711 25.8339L23.0062 26.4781C23.2766 26.7991 23.5409 27.061 23.7993 27.2463C24.0525 27.4279 24.3448 27.568 24.6607 27.568V26.568ZM23.7801 25.8449C23.2919 25.2307 23.1447 24.8443 23.1447 24.644H22.1447C22.1447 25.2117 22.4935 25.8333 22.9973 26.4671L23.7801 25.8449ZM23.1447 24.644C23.1447 24.5947 23.158 24.4617 23.1994 24.2132C23.2389 23.9763 23.2989 23.6624 23.3803 23.2694C23.5429 22.484 23.7877 21.3971 24.1153 20.0067L23.142 19.7773C22.8136 21.1709 22.5664 22.268 22.4011 23.0666C22.3184 23.4656 22.2555 23.7937 22.213 24.0488C22.1724 24.2923 22.1447 24.5013 22.1447 24.644H23.1447ZM24.1155 20.0061C24.774 17.1953 25.1877 14.8818 25.3507 13.0729L24.3547 12.9831C24.1977 14.7262 23.7953 16.9887 23.1419 19.7779L24.1155 20.0061Z" fill="black" fill-opacity="0.3"/>
<rect x="1.00002" y="1" width="49" height="35" rx="5.5" stroke="#E3E2E4" stroke-dasharray="2 2"/>
</svg>
