<svg width="67" height="55" viewBox="0 0 67 55" fill="none" xmlns="http://www.w3.org/2000/svg">
<g filter="url(#filter0_d_3760_85145)">
<g clip-path="url(#clip0_3760_85145)">
<g clip-path="url(#clip1_3760_85145)">
<g opacity="0.8" filter="url(#filter1_f_3760_85145)">
<ellipse cx="18.0344" cy="24.2565" rx="18.0344" ry="24.2565" transform="matrix(-0.155936 -0.987767 0.999908 0.0135939 14.2056 34.9634)" fill="#FFCFAC"/>
</g>
<g opacity="0.8" filter="url(#filter2_f_3760_85145)">
<ellipse cx="19.6507" cy="19.8311" rx="19.6507" ry="19.8311" transform="matrix(-0.409404 -0.912353 0.978013 -0.208546 8.62233 37.3379)" fill="#FF7715"/>
</g>
<g opacity="0.8" filter="url(#filter3_f_3760_85145)">
<path d="M64.079 10.2792C73.4852 19.353 56.8244 47.8862 53.0955 44.7186C50.8207 42.7863 50.5379 31.5205 43.5576 24.8547C39.0953 20.5935 29.175 20.1723 23.1337 18.8699C7.64201 15.5301 54.5944 1.12966 64.079 10.2792Z" fill="#DDBC68"/>
</g>
</g>
</g>
<rect x="0.62962" y="1.09053" width="49.6656" height="33.0444" rx="3.56167" transform="matrix(0.965926 0.258818 -0.25882 0.965926 13.5396 4.04998)" stroke="#E3E2E4" stroke-width="1.78084"/>
<path d="M20.3752 19.3155C19.7886 21.5047 21.1766 23.7783 23.4749 24.3941C25.7731 25.0099 28.1119 23.735 28.6985 21.5458C29.2851 19.3566 27.8972 17.083 25.5989 16.4672C23.3006 15.8513 20.9618 17.1263 20.3752 19.3155Z" fill="url(#paint0_linear_3760_85145)"/>
<path d="M40.0991 38.9264L39.7299 40.3043C39.4849 41.2184 39.3255 41.8082 39.1666 42.2471C39.0142 42.6679 38.9087 42.8108 38.8458 42.8779C38.6063 43.1335 38.2866 43.3078 37.9327 43.3759C37.8396 43.3937 37.656 43.4085 37.1943 43.3226C36.7128 43.2329 36.0928 43.0681 35.133 42.8109L19.1522 38.5289C18.1924 38.2717 17.573 38.1044 17.1112 37.9413C16.6684 37.785 16.5168 37.6803 16.4451 37.6183C16.1726 37.3824 15.983 37.0716 15.9033 36.7305C15.8824 36.6409 15.8624 36.4644 15.9409 36.0238C16.0227 35.5643 16.1796 34.9738 16.4245 34.0597L17.5845 29.7307C17.6672 29.6896 17.7482 29.6506 17.8275 29.6136C18.441 29.3276 19.0873 29.0996 19.8223 29.0613C20.9177 29.0041 22.0119 29.2845 22.9455 29.8616C23.5719 30.2488 24.0299 30.7597 24.4311 31.3057C24.6945 31.6642 24.9704 32.0908 25.2718 32.5735L27.3412 31.4562C28.1316 31.0295 28.8129 30.6616 29.4007 30.4037C30.0205 30.1317 30.6718 29.9184 31.4072 29.896C32.5033 29.8626 33.5904 30.1659 34.5101 30.7617C35.1272 31.1615 35.5732 31.681 35.9619 32.2344C35.9619 32.2344 38.7259 36.7074 40.0991 38.9264Z" fill="url(#paint1_linear_3760_85145)"/>
</g>
<g filter="url(#filter4_d_3760_85145)">
<rect x="6.17128" y="9.73291" width="52.5347" height="35.6167" rx="4.45209" fill="white" shape-rendering="crispEdges"/>
<g clip-path="url(#clip2_3760_85145)">
<g clip-path="url(#clip3_3760_85145)">
<g opacity="0.8" filter="url(#filter5_f_3760_85145)">
<ellipse cx="18.0344" cy="24.2565" rx="18.0344" ry="24.2565" transform="matrix(-0.406276 -0.91375 0.969355 -0.245664 15.7513 39.7397)" fill="#5076FF"/>
</g>
<g opacity="0.8" filter="url(#filter6_f_3760_85145)">
<ellipse cx="19.6507" cy="19.8312" rx="19.6507" ry="19.8312" transform="matrix(-0.631588 -0.775304 0.890712 -0.454568 10.9727 43.478)" fill="#77FFCE"/>
</g>
<g opacity="0.8" filter="url(#filter7_f_3760_85145)">
<path d="M57.5365 2.98821C68.9706 9.31833 60.2625 41.1915 55.8408 39.0969C53.1434 37.8192 49.9544 27.0104 41.4867 22.3785C36.0736 19.4174 26.3823 21.578 20.2098 21.8836C4.38154 22.6672 46.007 -3.39473 57.5365 2.98821Z" fill="#35B7E0"/>
</g>
</g>
</g>
<rect x="7.06171" y="10.6233" width="50.7539" height="33.8358" rx="3.56167" stroke="#E3E2E4" stroke-width="1.78084"/>
<path d="M17.6606 23.0276C17.6606 25.2941 19.5897 27.1309 21.969 27.1309C24.3484 27.1309 26.2775 25.2941 26.2775 23.0276C26.2775 20.7612 24.3484 18.9243 21.969 18.9243C19.5897 18.9243 17.6606 20.7612 17.6606 23.0276Z" fill="url(#paint2_linear_3760_85145)"/>
<path d="M41.788 36.8653L41.788 38.2919C41.788 39.2382 41.7867 39.8492 41.7468 40.3143C41.7085 40.7602 41.6436 40.9255 41.6002 41.0066C41.435 41.3155 41.1713 41.5666 40.847 41.7239C40.7618 41.7653 40.5883 41.8271 40.1201 41.8635C39.6318 41.9015 38.9902 41.9028 37.9966 41.9028H21.452C20.4584 41.9028 19.8168 41.9015 19.3285 41.8635C18.8603 41.8271 18.6868 41.7653 18.6015 41.7239C18.2773 41.5666 18.0136 41.3155 17.8484 41.0066C17.805 40.9255 17.74 40.7602 17.7018 40.3143C17.6619 39.8492 17.6606 39.2382 17.6606 38.2919L17.6606 33.8102C17.7299 33.7491 17.798 33.6904 17.865 33.6342C18.3836 33.1991 18.9489 32.8117 19.6489 32.5844C20.6921 32.2456 21.8217 32.2333 22.8728 32.5491C23.5781 32.761 24.1527 33.1359 24.6815 33.5595C25.0287 33.8376 25.4057 34.1783 25.8217 34.5665L27.5315 32.9517C28.1845 32.3349 28.7474 31.8033 29.2483 31.402C29.7767 30.9789 30.3506 30.6042 31.0551 30.3922C32.1052 30.0763 33.2337 30.0879 34.2764 30.4254C34.9759 30.6519 35.5412 31.0383 36.0598 31.4722C36.0598 31.4722 39.8873 35.0773 41.788 36.8653Z" fill="url(#paint3_linear_3760_85145)"/>
</g>
<defs>
<filter id="filter0_d_3760_85145" x="-0.0616252" y="-0.061671" width="67.0863" height="55.1233" filterUnits="userSpaceOnUse" color-interpolation-filters="sRGB">
<feFlood flood-opacity="0" result="BackgroundImageFix"/>
<feColorMatrix in="SourceAlpha" type="matrix" values="0 0 0 0 0 0 0 0 0 0 0 0 0 0 0 0 0 0 127 0" result="hardAlpha"/>
<feOffset/>
<feGaussianBlur stdDeviation="1.78084"/>
<feComposite in2="hardAlpha" operator="out"/>
<feColorMatrix type="matrix" values="0 0 0 0 0.258824 0 0 0 0 0.254902 0 0 0 0 0.286275 0 0 0 0.14 0"/>
<feBlend mode="normal" in2="BackgroundImageFix" result="effect1_dropShadow_3760_85145"/>
<feBlend mode="normal" in="SourceGraphic" in2="effect1_dropShadow_3760_85145" result="shape"/>
</filter>
<filter id="filter1_f_3760_85145" x="1.73084" y="-9.83519" width="67.8337" height="54.6294" filterUnits="userSpaceOnUse" color-interpolation-filters="sRGB">
<feFlood flood-opacity="0" result="BackgroundImageFix"/>
<feBlend mode="normal" in="SourceGraphic" in2="BackgroundImageFix" result="shape"/>
<feGaussianBlur stdDeviation="4.74889" result="effect1_foregroundBlur_3760_85145"/>
</filter>
<filter id="filter2_f_3760_85145" x="-10.5284" y="-12.6272" width="61.0015" height="55.8022" filterUnits="userSpaceOnUse" color-interpolation-filters="sRGB">
<feFlood flood-opacity="0" result="BackgroundImageFix"/>
<feBlend mode="normal" in="SourceGraphic" in2="BackgroundImageFix" result="shape"/>
<feGaussianBlur stdDeviation="4.7489" result="effect1_foregroundBlur_3760_85145"/>
</filter>
<filter id="filter3_f_3760_85145" x="10.5269" y="-2.21654" width="65.8896" height="56.6772" filterUnits="userSpaceOnUse" color-interpolation-filters="sRGB">
<feFlood flood-opacity="0" result="BackgroundImageFix"/>
<feBlend mode="normal" in="SourceGraphic" in2="BackgroundImageFix" result="shape"/>
<feGaussianBlur stdDeviation="4.7489" result="effect1_foregroundBlur_3760_85145"/>
</filter>
<filter id="filter4_d_3760_85145" x="2.60961" y="6.17124" width="59.6581" height="42.74" filterUnits="userSpaceOnUse" color-interpolation-filters="sRGB">
<feFlood flood-opacity="0" result="BackgroundImageFix"/>
<feColorMatrix in="SourceAlpha" type="matrix" values="0 0 0 0 0 0 0 0 0 0 0 0 0 0 0 0 0 0 127 0" result="hardAlpha"/>
<feOffset/>
<feGaussianBlur stdDeviation="1.78084"/>
<feComposite in2="hardAlpha" operator="out"/>
<feColorMatrix type="matrix" values="0 0 0 0 0.258824 0 0 0 0 0.254902 0 0 0 0 0.286275 0 0 0 0.14 0"/>
<feBlend mode="normal" in2="BackgroundImageFix" result="effect1_dropShadow_3760_85145"/>
<feBlend mode="normal" in="SourceGraphic" in2="effect1_dropShadow_3760_85145" result="shape"/>
</filter>
<filter id="filter5_f_3760_85145" x="-2.19515" y="-9.72386" width="68.2653" height="54.0517" filterUnits="userSpaceOnUse" color-interpolation-filters="sRGB">
<feFlood flood-opacity="0" result="BackgroundImageFix"/>
<feBlend mode="normal" in="SourceGraphic" in2="BackgroundImageFix" result="shape"/>
<feGaussianBlur stdDeviation="4.74889" result="effect1_foregroundBlur_3760_85145"/>
</filter>
<filter id="filter6_f_3760_85145" x="-14.8624" y="-7.97484" width="62.1755" height="54.4062" filterUnits="userSpaceOnUse" color-interpolation-filters="sRGB">
<feFlood flood-opacity="0" result="BackgroundImageFix"/>
<feBlend mode="normal" in="SourceGraphic" in2="BackgroundImageFix" result="shape"/>
<feGaussianBlur stdDeviation="4.7489" result="effect1_foregroundBlur_3760_85145"/>
</filter>
<filter id="filter7_f_3760_85145" x="7.16655" y="-7.51732" width="65.5257" height="56.2109" filterUnits="userSpaceOnUse" color-interpolation-filters="sRGB">
<feFlood flood-opacity="0" result="BackgroundImageFix"/>
<feBlend mode="normal" in="SourceGraphic" in2="BackgroundImageFix" result="shape"/>
<feGaussianBlur stdDeviation="4.7489" result="effect1_foregroundBlur_3760_85145"/>
</filter>
<linearGradient id="paint0_linear_3760_85145" x1="33.0899" y1="18.4744" x2="27.1426" y2="40.6699" gradientUnits="userSpaceOnUse">
<stop offset="0.578125" stop-color="white"/>
<stop offset="1" stop-color="white" stop-opacity="0"/>
</linearGradient>
<linearGradient id="paint1_linear_3760_85145" x1="33.0899" y1="18.4744" x2="27.1426" y2="40.6699" gradientUnits="userSpaceOnUse">
<stop offset="0.578125" stop-color="white"/>
<stop offset="1" stop-color="white" stop-opacity="0"/>
</linearGradient>
<linearGradient id="paint2_linear_3760_85145" x1="29.7243" y1="18.9243" x2="29.7243" y2="41.9028" gradientUnits="userSpaceOnUse">
<stop offset="0.578125" stop-color="white"/>
<stop offset="1" stop-color="white" stop-opacity="0"/>
</linearGradient>
<linearGradient id="paint3_linear_3760_85145" x1="29.7243" y1="18.9243" x2="29.7243" y2="41.9028" gradientUnits="userSpaceOnUse">
<stop offset="0.578125" stop-color="white"/>
<stop offset="1" stop-color="white" stop-opacity="0"/>
</linearGradient>
<clipPath id="clip0_3760_85145">
<rect width="51.4464" height="34.8252" rx="4.45209" transform="matrix(0.965926 0.258818 -0.25882 0.965926 13.2359 4.17578)" fill="white"/>
</clipPath>
<clipPath id="clip1_3760_85145">
<rect width="51.4464" height="34.8252" fill="white" transform="matrix(0.965926 0.258818 -0.25882 0.965926 13.2359 4.17578)"/>
</clipPath>
<clipPath id="clip2_3760_85145">
<rect x="6.17129" y="9.73291" width="52.5347" height="35.6167" rx="4.45209" fill="white"/>
</clipPath>
<clipPath id="clip3_3760_85145">
<rect width="51.4464" height="34.8252" fill="white" transform="translate(6.84617 10.252)"/>
</clipPath>
</defs>
</svg>
